<?xml version="1.0" standalone="no"?>
<!DOCTYPE svg PUBLIC "-//W3C//DTD SVG 20010904//EN"
 "http://www.w3.org/TR/2001/REC-SVG-20010904/DTD/svg10.dtd">
<svg version="1.0" xmlns="http://www.w3.org/2000/svg"
 width="1084.000000pt" height="1084.000000pt" viewBox="0 0 1084.000000 1084.000000"
 preserveAspectRatio="xMidYMid meet">
<metadata>
Created by potrace 1.14, written by Peter Selinger 2001-2017
</metadata>
<g transform="translate(0.000000,1084.000000) scale(0.100000,-0.100000)"
fill="#000000" stroke="none">
<path d="M1621 7068 c-12 -57 -178 -843 -370 -1748 l-347 -1645 469 -3 c259
-1 472 -1 473 1 2 2 64 287 137 633 l133 629 84 3 85 2 230 -631 c126 -347
234 -633 240 -635 5 -2 237 -3 515 -2 l506 3 -313 725 c-172 398 -313 725
-313 726 0 1 37 23 83 49 422 245 606 586 584 1085 -8 168 -32 274 -94 400
-40 81 -61 109 -142 190 -129 128 -249 195 -453 254 -192 55 -245 59 -889 63
l-596 4 -22 -103z m1091 -648 c87 -32 140 -104 158 -216 12 -73 -2 -203 -31
-280 -41 -110 -168 -210 -315 -248 -77 -20 -258 -22 -252 -3 3 6 40 185 84
396 l79 384 111 -6 c75 -4 128 -13 166 -27z"/>
<path d="M4400 7163 c0 -5 126 -483 280 -1063 154 -580 280 -1065 280 -1076 0
-12 -63 -317 -140 -679 -77 -361 -140 -661 -140 -666 0 -6 184 -8 472 -7 l471
3 144 674 143 674 726 1061 c400 584 729 1067 731 1074 4 9 -104 12 -519 12
l-525 0 -125 -217 c-69 -120 -235 -409 -369 -643 l-243 -424 -108 639 c-59
352 -107 641 -107 643 -2 6 -971 1 -971 -5z"/>
<path d="M7771 7123 c-6 -26 -171 -804 -366 -1728 -195 -924 -357 -1690 -360
-1702 l-5 -23 473 0 473 0 122 578 c67 317 128 603 134 635 l12 58 85 -3 84
-3 231 -632 231 -633 513 0 c281 0 512 3 512 6 0 4 -139 330 -310 726 -170
395 -310 722 -310 726 0 4 28 22 63 39 87 43 220 140 300 220 213 211 323 528
304 875 -15 256 -81 427 -225 580 -143 151 -340 244 -632 299 -108 20 -153 22
-716 26 l-602 4 -11 -48z m1073 -699 c108 -37 166 -140 166 -292 0 -151 -44
-269 -129 -344 -54 -47 -166 -102 -239 -117 -49 -10 -232 -16 -232 -7 0 2 36
176 80 386 44 210 80 387 80 393 0 16 216 1 274 -19z"/>
</g>
</svg>
