<svg id="Capa_1" data-name="Capa 1" xmlns="http://www.w3.org/2000/svg" viewBox="0 0 235.14 296.95"><path d="M89.6,16.05H34.1v.12H94.67Q92.18,16,89.6,16.05Z" transform="translate(-34.1 -16.05)"/><path d="M253.56,16.05v.12H34.1V313H269.23V164.35l-.06.1v-.1h.06V16.05ZM49.77,31.6h57.28A38.7,38.7,0,0,1,123,39.36q11.55,9.74,11.57,27.53,0,17.58-11.57,27.33T89.16,104H49.77Zm0,85.71H81.13a170.71,170.71,0,0,0,19.76-1.25L128,156.75H49.77Zm144.68,180H49.77V172.17H138l56.42,78.4ZM153,172.17h95.74l-46.22,64.59ZM253.56,297.33H209.92V250.42L253.56,190Zm0-140.58H143.14l-27.21-43.42a41.74,41.74,0,0,0,6.08-2.06,46.66,46.66,0,0,0,20.87-17.38c4.86-7.53,7.31-16.55,7.31-27q0-16.1-7.31-27.42a43.91,43.91,0,0,0-6.45-7.87H253.56ZM49.77,117.31l36.12-.08a100.84,100.84,0,0,0,15-1.17" transform="translate(-34.1 -16.05)"/><path d="M269.17,164.35v.1l.06-.1Z" transform="translate(-34.1 -16.05)"/></svg>