<svg id="Capa_1" data-name="Capa 1" xmlns="http://www.w3.org/2000/svg" viewBox="0 0 68.17 68.78"><defs><style>.cls-1{fill:#9798bf;stroke:#323336;stroke-miterlimit:10;}</style></defs><path class="cls-1" d="M39,44.52c.25.74.48,1.44.66,2H32.5c.42-1.18.87-2.51,1.24-3.94s.87-2.82,1.3-4.18a34.68,34.68,0,0,0,1-3.63h.06c.2.67.39,1.41.62,2.2s.48,1.63.76,2.5.55,1.72.82,2.6S38.75,43.76,39,44.52Z" transform="translate(-12.92 -10.94)"/><path class="cls-1" d="M73.38,11.44H20.6a7.23,7.23,0,0,0-7.18,7.27V72a7.22,7.22,0,0,0,7.18,7.26H73.38A7.24,7.24,0,0,0,80.58,72V18.71A7.24,7.24,0,0,0,73.38,11.44ZM50,59.1H44.11a.44.44,0,0,1-.44-.31l-2.14-6.62H30.86l-2.13,6.65a.5.5,0,0,1-.55.4h-5.3c-.31,0-.39-.17-.31-.51l9.08-26,.28-.87A9.23,9.23,0,0,0,32.1,30a.28.28,0,0,1,.23-.31h7.3c.2,0,.35.08.36.22l10.3,28.76C50.37,59,50.29,59.1,50,59.1Zm20.52-9.43c-.75,0-1.68,0-1.68,0H58a6.14,6.14,0,0,0,.88,2.51,4.4,4.4,0,0,0,2.05,1.69,8.75,8.75,0,0,0,3.61.71,16.83,16.83,0,0,0,2.93-.31,10.41,10.41,0,0,0,2.51-.65c.14-.11.24-.06.24.23v4.31a1.37,1.37,0,0,1-.07.34.76.76,0,0,1-.2.2,12.24,12.24,0,0,1-2.82.84,19.13,19.13,0,0,1-4,.34,13.34,13.34,0,0,1-5.41-1,9.45,9.45,0,0,1-3.55-2.68,10.57,10.57,0,0,1-1.95-3.69,14.85,14.85,0,0,1-.59-4.11,14.34,14.34,0,0,1,.71-4.49A11.47,11.47,0,0,1,54.4,40a10.26,10.26,0,0,1,3.41-2.68,10.77,10.77,0,0,1,4.71-.87,10.17,10.17,0,0,1,4.37.87,7.82,7.82,0,0,1,3,2.26,10.5,10.5,0,0,1,1.69,3.21,11.32,11.32,0,0,1,.53,3.44c0,.68,0,1.27,0,1.81s-.13,1.4-.16,1.65C71.86,49.7,71,49.67,70.52,49.67ZM66.15,45.5V45a3.32,3.32,0,0,0-.16-1,3.73,3.73,0,0,0-3.67-2.59,4,4,0,0,0-3.75,2.14,5.9,5.9,0,0,0-.62,2h8.2Z" transform="translate(-12.92 -10.94)"/></svg>