<svg id="Capa_1" data-name="Capa 1" xmlns="http://www.w3.org/2000/svg" viewBox="0 0 69 69"><defs><style>.cls-1{fill:#e7bd2e;stroke:#323336;stroke-miterlimit:10;}</style></defs><polygon class="cls-1" points="27.02 24.66 30.47 36.08 23.57 36.08 27.02 24.66"/><path class="cls-1" d="M72.58,18.89H17.86a6.64,6.64,0,0,0-6.64,6.64V80.25a6.64,6.64,0,0,0,6.64,6.64H72.58a6.64,6.64,0,0,0,6.64-6.64V25.53A6.64,6.64,0,0,0,72.58,18.89Zm-27.2,48-2.5-7H32.75l-2.16,7H24.45l9.47-27.07V38h7.64L51.81,66.89Zm15.09,0H54.38v-22h6.09Zm-3-24.17a3.42,3.42,0,1,1,3.41-3.41A3.41,3.41,0,0,1,57.46,42.72Z" transform="translate(-10.72 -18.39)"/></svg>