<svg id="Capa_1" data-name="Capa 1" xmlns="http://www.w3.org/2000/svg" viewBox="0 0 69 69"><defs><style>.cls-1{fill:#e56567;stroke:#323336;stroke-miterlimit:10;}</style></defs><path class="cls-1" d="M41.78,43.7a11.3,11.3,0,0,1,.64,3.91,13,13,0,0,1-.67,4.16,8.56,8.56,0,0,1-1.85,3.07A7.59,7.59,0,0,1,37,56.73a10.64,10.64,0,0,1-3.77.64,8.83,8.83,0,0,1-.92,0c-.25,0-.52,0-.77-.06s-.56,0-.86,0V38.77c.47,0,.91-.05,1.3-.05s.86,0,1.41,0a11.63,11.63,0,0,1,3.66.53A7.21,7.21,0,0,1,41.78,43.7Z" transform="translate(-16.5 -14.39)"/><path class="cls-1" d="M78.36,14.89H23.64A6.64,6.64,0,0,0,17,21.53V76.25a6.64,6.64,0,0,0,6.64,6.64H78.36A6.64,6.64,0,0,0,85,76.25V21.53A6.64,6.64,0,0,0,78.36,14.89ZM47.63,53.26a13.33,13.33,0,0,1-2.39,4.27,14.59,14.59,0,0,1-3.4,3,15.22,15.22,0,0,1-4.08,1.74,17,17,0,0,1-4.27.56H30.36c-1.11,0-2.16,0-3.1,0s-1.69,0-2.16-.06c-.2,0-.28-.16-.28-.44V33.9a.32.32,0,0,1,.28-.36h0c.41,0,1.05-.06,1.85-.06s1.78,0,2.88-.06,2.28,0,3.52,0a17.42,17.42,0,0,1,8.43,1.83,12.1,12.1,0,0,1,5,5,15.64,15.64,0,0,1,1.67,7.34A17.29,17.29,0,0,1,47.63,53.26ZM79.77,40.6,73.78,62a.59.59,0,0,1-.16.3c0,.14-.11.19-.25.17H68.19a.44.44,0,0,1-.34-.11,1,1,0,0,1-.16-.34c-.53-2.21-1-4.21-1.33-5.9s-.67-3.16-.89-4.35-.41-2.19-.58-3-.28-1.52-.36-2.11h0c-.28,1.22-.52,2.42-.77,3.55s-.5,2.3-.78,3.47-.58,2.43-.94,3.82-.72,2.91-1.14,4.54c0,.31-.19.45-.44.45H55.25a.65.65,0,0,1-.39-.09,1.31,1.31,0,0,1-.2-.3l-5.4-21.42c-.08-.25,0-.36.33-.36h5.24c.25,0,.39.08.42.28.55,2.43,1,4.54,1.38,6.31s.67,3.27.86,4.52.39,2.27.53,3,.25,1.44.33,1.94h.08c.06-.44.11-.86.2-1.3s.25-1.22.41-2.08.36-1.86.61-3l.86-4c.31-1.52.75-3.27,1.28-5.24a.88.88,0,0,1,.11-.36s.14-.08.3-.08h5.43c.17,0,.25.11.28.31.47,2,.86,3.79,1.19,5.32s.58,2.88.83,4.07.42,2.19.53,3,.25,1.55.36,2.13A11.52,11.52,0,0,1,71,56.51h.09c.14-.56.25-1.22.36-2S71.71,53,71.9,52s.36-2,.58-3.11.47-2.38.78-3.79.64-2.91,1-4.55c.06-.25.17-.36.36-.36h4.85C79.74,40.21,79.83,40.35,79.77,40.6Z" transform="translate(-16.5 -14.39)"/></svg>