<svg id="Capa_1" data-name="Capa 1" xmlns="http://www.w3.org/2000/svg" viewBox="0 0 69 69"><defs><style>.cls-1{fill:#e56567;stroke:#323336;stroke-miterlimit:10;}</style></defs><path class="cls-1" d="M58.54,48.45c.23,0,.46.08.69.13V60a2,2,0,0,1-.93.13c-.33,0-.7,0-1.09,0a6.89,6.89,0,0,1-2.15-.33,4.48,4.48,0,0,1-1.76-1A5.07,5.07,0,0,1,52.13,57a7.38,7.38,0,0,1-.44-2.67A5.74,5.74,0,0,1,52.55,51a5.8,5.8,0,0,1,2.2-1.92,6.36,6.36,0,0,1,2.93-.67A8.27,8.27,0,0,1,58.54,48.45Z" transform="translate(-15.61 -16.17)"/><path class="cls-1" d="M77.47,16.67H22.75a6.64,6.64,0,0,0-6.64,6.64V78a6.64,6.64,0,0,0,6.64,6.64H77.47A6.64,6.64,0,0,0,84.11,78V23.31A6.64,6.64,0,0,0,77.47,16.67ZM41.72,64.44c0,.28-.13.41-.37.41H36.27c-.23,0-.33-.13-.33-.41V37.75c0-.24.13-.34.36-.34h5.05a.29.29,0,0,1,.34.26.08.08,0,0,1,0,.08Zm23.19-.88a19.87,19.87,0,0,1-4.22,1.24,22.1,22.1,0,0,1-4,.36A12.91,12.91,0,0,1,51.12,64a9,9,0,0,1-3.91-3.53,11.19,11.19,0,0,1-1.43-5.9,10.66,10.66,0,0,1,5.55-9.49,13.25,13.25,0,0,1,6.56-1.5c.13,0,.31,0,.54,0s.49,0,.8,0V35.47c0-.19.08-.29.26-.29h5.26a.23.23,0,0,1,.26.18V60.09c0,.46,0,1,.06,1.55s.07,1.06.1,1.5A.43.43,0,0,1,64.91,63.56Z" transform="translate(-15.61 -16.17)"/></svg>