<svg id="Capa_1" data-name="Capa 1" xmlns="http://www.w3.org/2000/svg" viewBox="0 0 69.39 70"><defs><style>.cls-1{fill:#e7bd2e;stroke:#323336;stroke-miterlimit:10;}</style></defs><path class="cls-1" d="M85,19.72H31.24a7.36,7.36,0,0,0-7.32,7.4V81.33a7.36,7.36,0,0,0,7.32,7.39H85a7.37,7.37,0,0,0,7.33-7.39V27.12A7.37,7.37,0,0,0,85,19.72ZM61.13,73.54c0,6.71-3.9,9.78-9.6,9.78a10,10,0,0,1-9.65-5.93l5.24-3.19c1,1.8,1.92,3.33,4.14,3.33s3.45-.84,3.45-4.09v-22h6.42V73.54Zm15.21,9.78c-6,0-9.83-2.87-11.71-6.63l5.24-3c1.37,2.27,3.17,4,6.33,4,2.66,0,4.37-1.34,4.37-3.21,0-2.21-1.74-3-4.69-4.31l-1.6-.69c-4.64-2-7.71-4.5-7.71-9.78,0-4.87,3.68-8.57,9.4-8.57,4.09,0,7,1.44,9.13,5.19l-5,3.24c-1.1-2-2.29-2.77-4.13-2.77a2.8,2.8,0,0,0-3.07,2.77c0,1.94,1.19,2.72,4,3.94l1.6.69C83.91,66.45,87,68.87,87,74.29c0,5.82-4.55,9-10.64,9Z" transform="translate(-23.42 -19.22)"/></svg>