<svg id="Capa_1" data-name="Capa 1" xmlns="http://www.w3.org/2000/svg" viewBox="0 0 68.85 69.85"><defs><style>.cls-1{fill:#3d83ac;stroke:#323336;stroke-miterlimit:10;}</style></defs><path class="cls-1" d="M35.87,42.57,34.6,49.11c3.18,0,5.78.4,6.51-3.36C41.8,42.18,39.4,42.57,35.87,42.57Zm26.63,0-1.27,6.54c3.09,0,5.76.45,6.51-3.36C68.43,42.18,66.05,42.57,62.5,42.57Zm0,0-1.27,6.54c3.09,0,5.76.45,6.51-3.36C68.43,42.18,66.05,42.57,62.5,42.57Zm-26.63,0L34.6,49.11c3.18,0,5.78.4,6.51-3.36C41.8,42.18,39.4,42.57,35.87,42.57ZM77.66,12.24H23.46a6.82,6.82,0,0,0-6.83,6.82V74.27a6.82,6.82,0,0,0,6.83,6.82h54.2a6.82,6.82,0,0,0,6.82-6.82V19.06A6.82,6.82,0,0,0,77.66,12.24ZM50.56,62.62c-16.41,0-29.71-7-29.71-15.62s13.3-15.63,29.71-15.63,29.71,7,29.71,15.63S67,62.62,50.56,62.62Zm0-29.68c-15.91,0-28.15,6.69-28.15,14.06S34.64,61.06,50.56,61.06,78.71,54.36,78.71,47,66.47,32.94,50.56,32.94ZM34.1,51.6l-.81,4.16h-3.4l3-15.67h6.57a5.44,5.44,0,0,1,4.32,1.55c1.73,2,1.1,6-1.33,8.18C40.29,51.87,37.92,51.6,34.1,51.6Zm18.35,0c1.43-7.38,1.7-8,1.18-8.55s-1.64-.42-4.4-.42l-1.75,9H44.1l3-15.66h3.4l-.81,4.16c2.92,0,5.63-.21,6.94,1s.71,2.87-.78,10.5Zm16.67-1.76c-2.14,2-4.37,1.78-8.38,1.78l-.81,4.16H56.52l3-15.67h6.56a5.45,5.45,0,0,1,4.32,1.55C72.18,43.63,71.54,47.59,69.12,49.82ZM62.5,42.57l-1.27,6.54c3.09,0,5.76.45,6.51-3.36C68.43,42.18,66.05,42.57,62.5,42.57Zm-26.63,0L34.6,49.11c3.18,0,5.78.4,6.51-3.36C41.8,42.18,39.4,42.57,35.87,42.57Zm0,0L34.6,49.11c3.18,0,5.78.4,6.51-3.36C41.8,42.18,39.4,42.57,35.87,42.57Zm0,0L34.6,49.11c3.18,0,5.78.4,6.51-3.36C41.8,42.18,39.4,42.57,35.87,42.57Z" transform="translate(-16.13 -11.74)"/></svg>