<svg id="Capa_1" data-name="Capa 1" xmlns="http://www.w3.org/2000/svg" viewBox="0 0 68.17 68.78"><defs><style>.cls-1{fill:#9798bf;stroke:#323336;stroke-miterlimit:10;}</style></defs><path class="cls-1" d="M46.85,40a4.67,4.67,0,0,1,.65,2.49,4.31,4.31,0,0,1-.87,2.88,4.92,4.92,0,0,1-2.29,1.49,10.67,10.67,0,0,1-3.22.5H39.63c-.33,0-.7,0-1.09-.06v-9.4a7,7,0,0,1,1.15,0c.53,0,1.18,0,1.9,0a8.14,8.14,0,0,1,3.3.56A3.93,3.93,0,0,1,46.85,40Z" transform="translate(-17.36 -13.61)"/><path class="cls-1" d="M77.83,14.11H25.05a7.23,7.23,0,0,0-7.19,7.27V74.63a7.23,7.23,0,0,0,7.19,7.26H77.83A7.24,7.24,0,0,0,85,74.63V21.38A7.24,7.24,0,0,0,77.83,14.11ZM51.92,48.29a9.62,9.62,0,0,1-4.51,3.41,18.1,18.1,0,0,1-6.29.95c-.67,0-1.12,0-1.4,0s-.67,0-1.2,0v9a.36.36,0,0,1-.31.39H32.78c-.22,0-.34-.11-.34-.37V32.81c0-.19.09-.31.28-.31.48,0,.93,0,1.57,0s1.37,0,2.13-.06,1.56,0,2.43-.06,1.71,0,2.55,0a16.65,16.65,0,0,1,5.76.86,10,10,0,0,1,3.75,2.3,8.72,8.72,0,0,1,2,3.19,10.7,10.7,0,0,1,.65,3.64A10,10,0,0,1,51.92,48.29ZM71.11,45c0,.23-.14.31-.45.31a12.27,12.27,0,0,0-3,.28,11.51,11.51,0,0,0-2.35.76,4.25,4.25,0,0,0-1.42,1V61.63c0,.28-.12.39-.37.39H58a.39.39,0,0,1-.45-.33V46.07c0-.67,0-1.37,0-2.09s0-1.46,0-2.19-.06-1.26-.11-1.9a.26.26,0,0,1,.19-.31s.06,0,.09,0h4.89a.63.63,0,0,1,.59.45,3.25,3.25,0,0,1,.17.7c0,.28.11.59.14.87s0,.64,0,1a10.32,10.32,0,0,1,3-2.41,8.62,8.62,0,0,1,4.25-1.09.34.34,0,0,1,.39.31Z" transform="translate(-17.36 -13.61)"/></svg>