<svg id="Capa_1" data-name="Capa 1" xmlns="http://www.w3.org/2000/svg" viewBox="0 0 69 69"><defs><style>.cls-1{fill:#3d83ac;stroke:#323336;stroke-miterlimit:10;}</style></defs><path class="cls-1" d="M43.42,44.9c0,4.35-4.21,5.08-7,5.08A15.25,15.25,0,0,1,34,49.79V40S43.42,38.33,43.42,44.9Z" transform="translate(-14.28 -16.61)"/><path class="cls-1" d="M76.14,17.11H21.42a6.64,6.64,0,0,0-6.64,6.64V78.47a6.64,6.64,0,0,0,6.64,6.64H76.14a6.64,6.64,0,0,0,6.64-6.64V23.75A6.64,6.64,0,0,0,76.14,17.11ZM38.8,55.51H34.08v9.77H27.52V34.16H38.85a10.68,10.68,0,1,1-.05,21.35ZM65.13,65.1c-5.52,2.27-12.22-.69-12.22-.69v-6s6,3.59,9.42,1.82-1.3-3.7-1.3-3.7S53,53.91,52.91,48.83s4.44-7.26,8.43-7.52a16.53,16.53,0,0,1,7.33,1.34l0,5.55s-5.75-2.41-8.26-1.52-1.69,2.77,2.47,4.23A12.78,12.78,0,0,1,69.62,56,7.3,7.3,0,0,1,65.13,65.1Z" transform="translate(-14.28 -16.61)"/></svg>