<svg id="Capa_1" data-name="Capa 1" xmlns="http://www.w3.org/2000/svg" viewBox="0 0 69.66 70"><defs><style>.cls-1{fill:#3d83ac;stroke:#323336;stroke-miterlimit:10;}</style></defs><path class="cls-1" d="M37.05,48.23a62.08,62.08,0,0,0-2.88,7.48c-.49-.14-1-.29-1.44-.45a23.74,23.74,0,0,1-7.3-3.62,5.22,5.22,0,0,1-2.18-3.47c0-2.12,3.66-4.84,9-6.68.66-.23,1.33-.44,2-.64A62.1,62.1,0,0,0,37.05,48.23Z" transform="translate(-15.28 -13.89)"/><path class="cls-1" d="M40.13,42.28c-.57,1-1.12,2-1.64,3-.73-1.72-1.35-3.42-1.86-5,1.67-.37,3.45-.67,5.29-.91C41.3,40.3,40.7,41.28,40.13,42.28Z" transform="translate(-15.28 -13.89)"/><path class="cls-1" d="M36.6,56.32a52.72,52.72,0,0,1,1.89-5.16c.53,1,1.07,2,1.65,3s1.2,2,1.84,3A48.61,48.61,0,0,1,36.6,56.32Z" transform="translate(-15.28 -13.89)"/><path class="cls-1" d="M43.8,59.85a60.76,60.76,0,0,0,5,6.19c-.37.36-.74.71-1.12,1a21.08,21.08,0,0,1-6.54,4.09,5.15,5.15,0,0,1-4.09.15c-1.84-1.07-2.61-5.16-1.57-10.67.13-.65.27-1.3.43-1.94A58,58,0,0,0,43.8,59.85Z" transform="translate(-15.28 -13.89)"/><path class="cls-1" d="M47,36.4c1.14-1.5,2.31-2.89,3.47-4.15A52.45,52.45,0,0,1,53.9,36.4Q50.45,36.25,47,36.4Z" transform="translate(-15.28 -13.89)"/><path class="cls-1" d="M54,60a53.51,53.51,0,0,1-3.43,4.22A54.38,54.38,0,0,1,47,60.05c1.12,0,2.26.07,3.42.07S52.81,60.09,54,60Z" transform="translate(-15.28 -13.89)"/><path class="cls-1" d="M58.58,43.5q-1.34-2.3-2.81-4.49c-1.73-.13-3.52-.2-5.33-.2s-3.58.07-5.32.2c-1,1.47-1.95,3-2.83,4.51s-1.72,3.11-2.48,4.71c.78,1.6,1.6,3.17,2.49,4.71s1.85,3.05,2.85,4.52c1.71.11,3.47.16,5.29.16s3.62,0,5.35-.18c1-1.49,1.93-3,2.81-4.53s1.72-3.13,2.5-4.73C60.31,46.59,59.48,45,58.58,43.5Zm-8.14,10a5.31,5.31,0,1,1,5.32-5.31A5.31,5.31,0,0,1,50.44,53.53Z" transform="translate(-15.28 -13.89)"/><path class="cls-1" d="M64.29,40.26a48.86,48.86,0,0,1-1.87,5c-.54-1-1.1-2-1.68-3s-1.16-2-1.77-2.93C60.83,39.57,62.62,39.88,64.29,40.26Z" transform="translate(-15.28 -13.89)"/><path class="cls-1" d="M64.41,56.21a53,53,0,0,1-5.45.93c.62-1,1.21-2,1.79-3s1.15-2.06,1.7-3.1A54.92,54.92,0,0,1,64.41,56.21Z" transform="translate(-15.28 -13.89)"/><path class="cls-1" d="M57.15,36.63a59.74,59.74,0,0,0-4.94-6.16c.45-.43.89-.83,1.35-1.24,4.32-3.76,8.34-5.23,10.17-4.17s2.72,5.67,1.49,11.64c-.08.4-.16.78-.27,1.16A58.86,58.86,0,0,0,57.15,36.63Z" transform="translate(-15.28 -13.89)"/><path class="cls-1" d="M65.4,60.05a20.91,20.91,0,0,1,.29,7.69,5.17,5.17,0,0,1-1.91,3.63c-1.84,1.06-5.77-.33-10-4-.49-.42-1-.87-1.47-1.33a57.4,57.4,0,0,0,4.89-6.22,57.27,57.27,0,0,0,7.91-1.22C65.21,59.11,65.31,59.58,65.4,60.05Z" transform="translate(-15.28 -13.89)"/><path class="cls-1" d="M77.64,48.15c0,2.27-4,5.21-9.83,7.12-.33.1-.65.21-1,.3a58.24,58.24,0,0,0-3-7.4,57.59,57.59,0,0,0,2.84-7.29c.61.17,1.19.36,1.74.54C73.85,43.28,77.64,46,77.64,48.15Z" transform="translate(-15.28 -13.89)"/><path class="cls-1" d="M76.61,14.39h-53a7.83,7.83,0,0,0-7.83,7.83V75.56a7.83,7.83,0,0,0,7.83,7.83h53a7.83,7.83,0,0,0,7.83-7.83V22.22A7.83,7.83,0,0,0,76.61,14.39Zm-8,43.26c-.36.11-.72.23-1.09.33.13.54.25,1.06.35,1.57,1.32,6.68.3,12.16-2.83,14s-7.93,0-12.9-4.24c-.53-.47-1.06-.94-1.57-1.44-.41.4-.81.77-1.22,1.13-5.13,4.48-10.39,6.34-13.52,4.53s-4-6.85-2.77-13.29c.13-.71.29-1.39.46-2.09-.53-.15-1.06-.32-1.58-.5-6.43-2.2-11.17-5.83-11.17-9.45s4.45-6.89,10.64-9c.68-.25,1.41-.48,2.16-.69-.17-.65-.31-1.29-.43-1.93C31.84,30,32.75,24.74,35.78,23s8.46.13,13.74,4.81c.32.29.64.6,1,.9.46-.46,1-.91,1.45-1.34,5-4.38,10-6.2,13.06-4.45s4.1,7.39,2.68,14.3c-.1.43-.19.86-.29,1.29.62.18,1.25.38,1.87.59,6.31,2.17,10.88,5.58,10.88,9.09C80.13,51.85,75.29,55.43,68.59,57.65Z" transform="translate(-15.28 -13.89)"/><path class="cls-1" d="M48.73,30.47a58.81,58.81,0,0,0-5,6.16A60.35,60.35,0,0,0,36,37.84c-.15-.59-.28-1.2-.41-1.8-1.09-5.61-.37-9.85,1.46-10.9s6.28.49,10.84,4.52Z" transform="translate(-15.28 -13.89)"/></svg>