<svg id="Capa_1" data-name="Capa 1" xmlns="http://www.w3.org/2000/svg" viewBox="0 0 68.78 69.39"><defs><style>.cls-1{fill:#e56567;stroke:#323336;stroke-miterlimit:10;}</style></defs><path class="cls-1" d="M38.92,57.42a6.94,6.94,0,0,1-1.67,6.84c-1.6,1.76-3.86,2.42-4.83,1.86s-.63-3.18,1.36-5.06a26.3,26.3,0,0,1,3.79-2.83l1-.6.11-.06Z" transform="translate(-18.83 -15.97)"/><path class="cls-1" d="M50.41,51.1c.31.52-1.07,4.32-1.42,5.18-.55,1.37-1.73,4.86-2.45,4.68s-1-2.82-.12-5.44A11.92,11.92,0,0,1,48.33,52C49.21,51,50.18,50.71,50.41,51.1Z" transform="translate(-18.83 -15.97)"/><path class="cls-1" d="M60.88,57.73s0,.08,0,.14c0,1.56-1.52,2.62-2.2,3-.23.12-.45.2-.56.14s.1-.21.1-.21,1.22-1.3,1.7-1.9Z" transform="translate(-18.83 -15.97)"/><path class="cls-1" d="M68.27,55.25a3.45,3.45,0,0,1,.17,1,3.08,3.08,0,0,1-2.27,3c-.17-.12-.15-.53.44-1.8A6.89,6.89,0,0,1,68.27,55.25Z" transform="translate(-18.83 -15.97)"/><path class="cls-1" d="M79.85,16.47H26.6a7.3,7.3,0,0,0-7.27,7.34V77.54a7.29,7.29,0,0,0,7.27,7.32H79.85a7.29,7.29,0,0,0,7.26-7.32V23.81A7.3,7.3,0,0,0,79.85,16.47Zm-.17,45c-.29,0-.45.06-.49-.16s.07-.24.42-.44a3.22,3.22,0,0,0,1.53-2.17c.18-1.25-.77-4.27-5.58-4.83a10.64,10.64,0,0,0-5.39.62,6.32,6.32,0,0,1,.47,2,4.15,4.15,0,0,1-2.06,3.43,6.74,6.74,0,0,1-1.86,1,2.91,2.91,0,0,1-1.49.3c-.94-.19-1.45-1-.8-2.86a9.46,9.46,0,0,1,2.95-3.83,14.18,14.18,0,0,1-1-2.22A16.62,16.62,0,0,1,65.85,50a43.63,43.63,0,0,1-3,5.26l-.3.43a7.23,7.23,0,0,1,.64,2.44,3.92,3.92,0,0,1-1.69,3.45,7.07,7.07,0,0,1-1.74.92,6.18,6.18,0,0,1-2,.47,2.1,2.1,0,0,1-1.36-.22.89.89,0,0,1-.24-1.19,30.74,30.74,0,0,1,2.6-3.25c.31-.37.59-.75.85-1.09h0l.53-.72a18.67,18.67,0,0,1-1.16-2.59,17.39,17.39,0,0,1-.54-2.24S57,55.11,55.63,57.86c-1.08,2.13-1.81,3.42-2.14,4v0a2.08,2.08,0,0,1-.12.2l-.06.09c-.37.55-1.18,1.59-2,1.59-2.11,0-1.49-4-1.42-4.48-.11.27-.71,1.76-1.38,3.07s-1.13,2.16-2.33,2.16a1.85,1.85,0,0,1-1.33-.42,7.69,7.69,0,0,1-1.65-5.36,13.38,13.38,0,0,1,.72-3.68c-.61.33-1.31.73-2,1.15l-1.11.65s0,0,0,.07A9.39,9.39,0,0,1,40,65.53a8.64,8.64,0,0,1-9.32,3.78c-1.16-.33-2.92-2.74-1.41-6.1,1.34-3,6.7-5.76,8.11-6.46l.39-.22c-2.82-2.46-9.85-5.78-10.83-10.89-.27-1.44.4-4.87,4.61-8.82a38.35,38.35,0,0,1,13.05-7.48c7.66-2.73,15.76-1.12,17,3.76S58.65,43.65,53.3,45.71c-4.76,1.84-8.71,1.56-10.32,1a5.23,5.23,0,0,1-3.19-2.5c-.1-.26-.28-.72,0-.87s.25-.07.7.44,2.21,1.78,5.57,1.42c8.81-1,14.12-7.84,12.44-11.53-1.17-2.58-8-3.74-16.44.48-10.36,5.17-10.91,9.42-11,11-.25,4.44,5.48,6.77,8.58,10.09l.12.12,1.79-1,3.73-2c1.08-1.58,3.3-3.34,4.89-3.34,2.43,0,1.76,3.31,1.69,3.65,0,0,.07-.15.12-.15a1,1,0,0,1,1.14-.19c.81.31.62.86.63.93s-1,3.38-1.36,5.46a3.88,3.88,0,0,0,0,1.73c.08,0,.24-.25.39-.53h0s.11-.18.27-.51l0-.06h0a.41.41,0,0,1,0-.08c.23-.43.54-1.07.9-1.86.71-1.58,3.42-7.61,3.65-8.27s.34-1.36.45-1.66S59.17,47,60.28,47s1.23.49,1.24.58a18.87,18.87,0,0,0-.65,2.36A7.13,7.13,0,0,0,61,52.13,6.83,6.83,0,0,0,61.73,54c1.15-1.9,3.19-5.51,3.39-6.53a10.64,10.64,0,0,1,.46-1.65c.11-.3,1.07-.52,2.19-.51s1.23.48,1.24.58a18.33,18.33,0,0,0-.66,2.36,6.83,6.83,0,0,0,.09,2.19,10.54,10.54,0,0,0,1.13,2.6,11.38,11.38,0,0,1,5-1.16c5,0,7.83,3.21,7.7,6.15A3.75,3.75,0,0,1,79.68,61.42Z" transform="translate(-18.83 -15.97)"/></svg>