<svg id="Capa_1" data-name="Capa 1" xmlns="http://www.w3.org/2000/svg" viewBox="0 0 69 69"><defs><style>.cls-1{fill:#3d83ac;stroke:#323336;stroke-miterlimit:10;}</style></defs><path class="cls-1" d="M88.14,25.56H33.42a6.64,6.64,0,0,0-6.64,6.64V86.92a6.64,6.64,0,0,0,6.64,6.64H88.14a6.64,6.64,0,0,0,6.64-6.64V32.2A6.64,6.64,0,0,0,88.14,25.56ZM66.23,63.29H57.69V87.58H50.94V63.29H42.45V57.83H66.23Zm22,20A7.73,7.73,0,0,1,85.69,86a10.82,10.82,0,0,1-3.78,1.51,21.37,21.37,0,0,1-4.54.46,24.93,24.93,0,0,1-4.66-.42,13.64,13.64,0,0,1-3.84-1.24V79.67a12.66,12.66,0,0,0,3.93,2.27,12.51,12.51,0,0,0,4.28.76,9,9,0,0,0,2.21-.23,4.78,4.78,0,0,0,1.58-.63,2.56,2.56,0,0,0,.95-1,2.33,2.33,0,0,0,.32-1.19,2.56,2.56,0,0,0-.51-1.56,5.4,5.4,0,0,0-1.36-1.27,15.88,15.88,0,0,0-2-1.12c-.78-.36-1.64-.72-2.55-1.09a13.13,13.13,0,0,1-5.21-3.56A7.78,7.78,0,0,1,68.75,66a8.06,8.06,0,0,1,.93-4,7.82,7.82,0,0,1,2.55-2.75A10.93,10.93,0,0,1,76,57.68a18.61,18.61,0,0,1,4.49-.51,26.82,26.82,0,0,1,4.13.28,16.36,16.36,0,0,1,3.31.86v6.21a10.34,10.34,0,0,0-1.64-.91A13.42,13.42,0,0,0,84.44,63a14.28,14.28,0,0,0-1.86-.38,12.17,12.17,0,0,0-1.76-.13,9,9,0,0,0-2.08.22,5.32,5.32,0,0,0-1.58.62,3.13,3.13,0,0,0-1,.94,2.3,2.3,0,0,0-.35,1.24,2.38,2.38,0,0,0,.4,1.34,4.94,4.94,0,0,0,1.12,1.12,13.21,13.21,0,0,0,1.76,1c.7.34,1.49.68,2.36,1.05a27.44,27.44,0,0,1,3.21,1.59,11,11,0,0,1,2.44,1.9,7.62,7.62,0,0,1,1.56,2.42,8.52,8.52,0,0,1,.54,3.17A8.62,8.62,0,0,1,88.26,83.28Z" transform="translate(-26.28 -25.06)"/><path class="cls-1" d="M88.14,25.56H33.42a6.64,6.64,0,0,0-6.64,6.64V86.92a6.64,6.64,0,0,0,6.64,6.64H88.14a6.64,6.64,0,0,0,6.64-6.64V32.2A6.64,6.64,0,0,0,88.14,25.56ZM66.23,63.29H57.69V87.58H50.94V63.29H42.45V57.83H66.23Zm22,20A7.73,7.73,0,0,1,85.69,86a10.82,10.82,0,0,1-3.78,1.51,21.37,21.37,0,0,1-4.54.46,24.93,24.93,0,0,1-4.66-.42,13.64,13.64,0,0,1-3.84-1.24V79.67a12.66,12.66,0,0,0,3.93,2.27,12.51,12.51,0,0,0,4.28.76,9,9,0,0,0,2.21-.23,4.78,4.78,0,0,0,1.58-.63,2.56,2.56,0,0,0,.95-1,2.33,2.33,0,0,0,.32-1.19,2.56,2.56,0,0,0-.51-1.56,5.4,5.4,0,0,0-1.36-1.27,15.88,15.88,0,0,0-2-1.12c-.78-.36-1.64-.72-2.55-1.09a13.13,13.13,0,0,1-5.21-3.56A7.78,7.78,0,0,1,68.75,66a8.06,8.06,0,0,1,.93-4,7.82,7.82,0,0,1,2.55-2.75A10.93,10.93,0,0,1,76,57.68a18.61,18.61,0,0,1,4.49-.51,26.82,26.82,0,0,1,4.13.28,16.36,16.36,0,0,1,3.31.86v6.21a10.34,10.34,0,0,0-1.64-.91A13.42,13.42,0,0,0,84.44,63a14.28,14.28,0,0,0-1.86-.38,12.17,12.17,0,0,0-1.76-.13,9,9,0,0,0-2.08.22,5.32,5.32,0,0,0-1.58.62,3.13,3.13,0,0,0-1,.94,2.3,2.3,0,0,0-.35,1.24,2.38,2.38,0,0,0,.4,1.34,4.94,4.94,0,0,0,1.12,1.12,13.21,13.21,0,0,0,1.76,1c.7.34,1.49.68,2.36,1.05a27.44,27.44,0,0,1,3.21,1.59,11,11,0,0,1,2.44,1.9,7.62,7.62,0,0,1,1.56,2.42,8.52,8.52,0,0,1,.54,3.17A8.62,8.62,0,0,1,88.26,83.28Z" transform="translate(-26.28 -25.06)"/></svg>